name rise30.2954peak35.7071fall66.7804.mot
datacolumns 19
datarows 11
range 1.44499500000000 1.46166200000000
endheader
time	ground_force1_vx	ground_force1_vy	ground_force1_vz	ground_force1_px	ground_force1_py	ground_force1_pz	ground_force2_vx	ground_force2_vy	ground_force2_vz	ground_force2_px	ground_force2_py	ground_force2_pz	ground_torque1_x	ground_torque1_y	ground_torque1_z	ground_torque2_x	ground_torque2_y	ground_torque2_z	
1.44499500000000	-6.02834800000000	41.92025200000000	-10.48393100000000	0.23972000000000	0.00000000000000	0.05666100000000	-59.82081600000000	768.60232099999996	-46.68481000000000	0.08796500000000	0.00000000000000	-0.11693700000000	0.00000000000000	-6.35434200000000	0.00000000000000	0.00000000000000	-21.05367800000000	0.00000000000000	
1.44666900000000	-6.46115300000000	49.58752200000000	-11.80131500000000	0.24828200000000	0.00000000000000	0.05710500000000	-60.70113900000000	764.99929899999995	-46.19175600000000	0.08695400000000	0.00000000000000	-0.11684000000000	0.00000000000000	-7.27144400000000	0.00000000000000	0.00000000000000	-21.10981500000000	0.00000000000000	
1.44833000000000	-6.73707200000000	57.47018000000000	-13.00309300000000	0.25597200000000	0.00000000000000	0.05749500000000	-61.59339400000000	761.25396499999999	-45.68017100000000	0.08594700000000	0.00000000000000	-0.11674100000000	0.00000000000000	-8.13442000000000	0.00000000000000	0.00000000000000	-21.16962900000000	0.00000000000000	
1.44999400000000	-6.83841100000000	65.47597600000000	-14.06169200000000	0.26294700000000	0.00000000000000	0.05784000000000	-62.49558500000000	757.36293200000000	-45.14993500000000	0.08494400000000	0.00000000000000	-0.11663900000000	0.00000000000000	-8.92300000000000	0.00000000000000	0.00000000000000	-21.23268700000000	0.00000000000000	
1.45166700000000	-6.75526700000000	73.53213300000000	-14.95879700000000	0.26932800000000	0.00000000000000	0.05814800000000	-63.40558700000000	753.32282399999997	-44.60094900000000	0.08394700000000	0.00000000000000	-0.11653300000000	0.00000000000000	-9.62260100000000	0.00000000000000	0.00000000000000	-21.29851900000000	0.00000000000000	
1.45333000000000	-6.48529700000000	81.58799000000000	-15.68548700000000	0.27520800000000	0.00000000000000	0.05842500000000	-64.32115500000000	749.13029600000004	-44.03314300000000	0.08295800000000	0.00000000000000	-0.11642500000000	0.00000000000000	-10.22464300000000	0.00000000000000	0.00000000000000	-21.36662400000000	0.00000000000000	
1.45499500000000	-6.03292500000000	89.61538600000000	-16.24157500000000	0.28066100000000	0.00000000000000	0.05867500000000	-65.23992699999999	744.78204500000004	-43.44647600000000	0.08197900000000	0.00000000000000	-0.11631300000000	0.00000000000000	-10.72632500000000	0.00000000000000	0.00000000000000	-21.43647000000000	0.00000000000000	
1.45666300000000	-5.40812500000000	97.60712400000000	-16.63434600000000	0.28574600000000	0.00000000000000	0.05890200000000	-66.15943200000000	740.27483500000005	-42.84094100000000	0.08100900000000	0.00000000000000	-0.11619800000000	0.00000000000000	-11.12996600000000	0.00000000000000	0.00000000000000	-21.50749500000000	0.00000000000000	
1.45833400000000	-4.62496900000000	105.57397200000000	-16.87689900000000	0.29050900000000	0.00000000000000	0.05910900000000	-67.07709699999999	735.60551199999998	-42.21656400000000	0.08005100000000	0.00000000000000	-0.11607900000000	0.00000000000000	-11.44203400000000	0.00000000000000	0.00000000000000	-21.57911100000000	0.00000000000000	
1.46000200000000	-3.70009000000000	113.54071000000000	-16.98630700000000	0.29499000000000	0.00000000000000	0.05929800000000	-67.99025899999999	730.77102200000002	-41.57341100000000	0.07910700000000	0.00000000000000	-0.11595700000000	0.00000000000000	-11.67200600000000	0.00000000000000	0.00000000000000	-21.65070300000000	0.00000000000000	
1.46166200000000	-2.65120800000000	121.54171200000000	-16.98176200000000	0.29921900000000	0.00000000000000	0.05947300000000	-68.89616599999999	725.76843499999995	-40.91158600000000	0.07817700000000	0.00000000000000	-0.11583200000000	0.00000000000000	-11.83117000000000	0.00000000000000	0.00000000000000	-21.72163400000000	0.00000000000000	
